<?xml version="1.0" standalone="no"?>
<!DOCTYPE svg PUBLIC "-//W3C//DTD SVG 20010904//EN"
 "http://www.w3.org/TR/2001/REC-SVG-20010904/DTD/svg10.dtd">
<svg version="1.0" xmlns="http://www.w3.org/2000/svg"
 viewBox="0 0 2554.000000 2554.000000"
 preserveAspectRatio="xMidYMid meet">
<metadata>
Created by potrace 1.15, written by Peter Selinger 2001-2017
</metadata>
<g transform="translate(0.000000,2554.000000) scale(0.100000,-0.100000)"
fill="#000000" stroke="none">
<path d="M9835 22920 c-66 -13 -155 -48 -214 -82 -88 -53 -209 -175 -270 -275
-30 -48 -92 -135 -136 -193 -164 -211 -170 -229 -170 -510 1 -261 18 -423 57
-520 38 -97 137 -286 240 -457 72 -120 93 -168 112 -254 4 -19 30 -42 93 -84
163 -108 394 -294 768 -619 93 -81 171 -143 172 -139 1 4 19 64 38 133 20 69
46 141 59 160 13 19 32 71 41 115 36 168 66 186 310 189 137 1 153 3 186 24
53 32 64 66 49 147 -10 51 -10 75 0 116 10 40 10 56 0 74 -10 20 -9 27 10 53
21 28 22 38 17 107 -8 96 6 136 54 154 122 45 122 40 9 327 -78 196 -93 244
-90 278 11 110 3 212 -24 306 -35 124 -112 279 -176 358 l-51 63 26 30 c29 35
33 85 10 128 -67 130 -456 315 -770 366 -95 16 -283 18 -350 5z"/>
<path d="M17283 20620 c-12 -5 -64 -38 -116 -73 -89 -61 -98 -65 -183 -77
-116 -16 -121 -19 -230 -100 -100 -75 -108 -85 -130 -161 -11 -35 -32 -68 -74
-112 -33 -35 -64 -76 -69 -90 -15 -38 -34 -281 -28 -342 7 -66 42 -150 75
-175 32 -25 46 -25 32 -1 -12 24 -13 71 -1 90 6 10 14 -4 26 -45 20 -68 21
-103 7 -159 -5 -22 -13 -52 -16 -67 -5 -22 -12 -28 -32 -28 -31 0 -94 -26 -94
-38 0 -5 -10 -13 -22 -16 l-23 -6 22 -18 c11 -10 37 -50 56 -88 48 -94 83
-126 147 -132 33 -3 50 -9 50 -18 0 -7 -11 -43 -25 -80 -39 -104 -32 -127 48
-155 36 -13 37 -14 37 -64 0 -51 23 -113 59 -164 11 -15 36 -81 56 -147 47
-157 51 -166 88 -202 59 -56 148 -61 290 -16 27 9 50 14 52 13 1 -2 24 -50 49
-107 26 -57 58 -122 73 -145 35 -57 164 -217 175 -217 17 0 397 347 491 449
111 121 242 347 240 415 -1 17 -11 100 -22 184 l-22 153 55 60 c45 48 60 73
77 131 24 78 24 77 17 483 -4 219 -6 245 -26 296 -13 31 -36 74 -52 95 -16 22
-58 76 -92 121 -35 45 -92 137 -127 205 -81 155 -99 178 -163 213 -44 24 -68
30 -153 35 -84 4 -106 9 -140 31 -62 40 -122 57 -220 63 -49 3 -101 8 -115 11
-14 2 -35 0 -47 -5z m-648 -1434 l46 -44 -3 -68 -3 -69 -35 3 c-49 3 -78 28
-117 98 -41 74 -43 101 -5 110 15 3 32 7 37 9 25 8 38 2 80 -39z"/>
<path d="M9143 20230 l-88 -160 -80 -49 c-112 -69 -275 -191 -353 -264 -37
-35 -119 -101 -182 -149 -127 -94 -223 -189 -262 -258 -92 -160 -193 -738
-204 -1165 -6 -217 -6 -223 29 -440 66 -405 128 -887 146 -1130 6 -79 19 -156
31 -195 38 -117 51 -202 60 -385 10 -197 18 -257 50 -373 27 -97 69 -185 118
-248 22 -27 46 -63 55 -80 23 -44 54 -159 79 -289 20 -105 21 -151 28 -1055 5
-715 10 -955 20 -985 7 -22 27 -60 45 -85 18 -25 46 -72 63 -105 16 -33 57
-102 91 -153 33 -51 73 -116 88 -145 l27 -52 7 -330 c5 -247 14 -390 33 -570
70 -646 79 -747 80 -905 1 -187 7 -161 -149 -720 -128 -459 -185 -712 -210
-930 -17 -153 -42 -507 -51 -733 -4 -92 -9 -166 -11 -163 -2 2 -8 217 -13 477
-16 773 -44 1159 -95 1287 -43 106 -320 197 -705 232 -63 5 -147 10 -186 10
l-72 0 5 153 c2 83 17 881 34 1772 l30 1620 25 80 c53 163 41 332 -27 389 -81
68 -250 100 -539 100 -226 0 -388 -16 -549 -54 -145 -35 -219 -81 -264 -164
-32 -59 -31 -226 1 -306 l22 -55 0 -1731 0 -1731 -212 -6 c-116 -4 -464 -7
-772 -7 -717 0 -821 -9 -986 -88 -128 -60 -208 -161 -249 -312 -47 -173 -96
-805 -151 -1945 -72 -1496 -92 -2300 -61 -2465 17 -93 45 -175 75 -220 18 -27
25 -56 30 -125 10 -128 21 -158 72 -212 25 -27 47 -57 49 -68 3 -11 9 -47 15
-80 7 -44 17 -66 35 -82 l26 -23 -26 -37 c-43 -64 -69 -164 -61 -241 9 -82 40
-156 78 -184 91 -64 243 -7 264 100 4 17 30 59 60 93 57 66 60 73 68 208 4 57
11 90 22 102 8 9 18 36 21 58 3 23 11 41 17 41 15 0 658 -129 661 -132 1 -2
15 -27 31 -57 41 -76 82 -105 140 -98 37 4 55 13 87 45 l42 41 529 -123 c609
-143 549 -116 641 -285 l56 -104 -11 -65 c-6 -36 -22 -92 -36 -124 -61 -146
-32 -287 71 -345 86 -49 167 -20 220 79 17 31 61 94 99 139 79 95 88 121 79
241 -5 66 -3 78 10 84 18 6 37 62 37 105 0 25 11 30 322 143 269 98 326 116
345 107 33 -15 29 -44 -18 -141 -69 -141 -65 -247 14 -336 73 -83 151 -97 216
-39 21 19 44 50 52 68 7 17 40 68 74 112 83 108 85 112 85 203 0 64 4 84 20
105 15 19 20 40 20 84 0 54 2 60 34 85 19 15 49 50 67 78 l32 50 40 -97 c52
-131 54 -134 77 -163 24 -30 26 -63 16 -241 -10 -159 -4 -177 71 -232 108 -78
234 -131 648 -269 249 -84 311 -101 365 -102 81 -1 125 22 160 85 23 41 25 55
28 200 6 252 -28 393 -132 559 -69 109 -127 225 -159 320 l-26 76 35 129 c19
72 55 191 79 265 61 185 69 267 61 625 -3 160 -2 316 3 349 7 53 13 63 65 113
31 29 63 70 71 90 26 62 45 199 46 332 l1 126 24 -85 c36 -124 39 -181 19
-301 -34 -196 -22 -369 26 -384 17 -6 19 -16 19 -119 l0 -112 37 -18 c111 -53
333 -34 752 64 l89 21 6 44 c9 58 42 106 91 130 61 30 242 33 410 5 83 -14
197 -24 315 -27 206 -6 274 3 443 59 196 65 468 206 530 276 62 69 21 224 -71
268 -51 24 -211 14 -517 -31 -298 -45 -363 -47 -429 -17 -59 27 -194 117 -254
169 l-44 38 13 200 c20 336 2 624 -67 1030 -36 215 -78 411 -119 554 -19 69
-35 146 -35 172 0 122 47 279 200 669 148 377 150 384 150 649 0 409 24 928
61 1336 27 307 34 577 20 875 -12 267 -41 635 -67 854 l-15 130 36 36 35 36 0
1669 c0 1583 -6 2037 -30 2360 -42 549 -114 883 -272 1257 -65 154 -300 624
-411 823 l-84 150 -61 3 c-34 2 -62 1 -62 -1 0 -2 16 -73 36 -158 35 -146 37
-165 41 -369 3 -118 3 -233 1 -254 l-3 -40 -64 90 c-299 415 -600 758 -977
1116 -212 200 -449 413 -479 431 -10 5 -38 -37 -102 -153z m-1812 -6353 c57
-38 70 -77 63 -182 -3 -49 -23 -867 -43 -1817 -20 -950 -39 -1729 -42 -1731
-2 -3 -192 7 -421 21 l-418 26 0 155 c0 297 29 3236 33 3341 4 105 21 169 48
186 28 17 110 21 425 23 318 1 321 1 355 -22z"/>
<path d="M18431 18387 c35 -100 29 -119 -77 -274 -74 -108 -274 -443 -462
-776 -77 -136 -143 -243 -147 -237 -4 6 -9 38 -12 70 l-6 58 50 54 c94 100 94
125 -5 220 -135 129 -207 160 -271 116 -56 -38 -76 -89 -74 -188 6 -315 3
-480 -12 -740 -9 -162 -17 -296 -19 -297 -5 -5 -47 272 -63 412 -12 112 -14
203 -9 460 3 176 9 378 12 448 l7 129 -256 -171 c-141 -93 -323 -209 -404
-257 -81 -48 -163 -101 -181 -118 -64 -60 -65 -63 -73 -381 -18 -679 -40
-1644 -49 -2100 -6 -269 -17 -582 -25 -695 -26 -373 -48 -625 -56 -646 -4 -12
-207 -193 -451 -402 l-443 -381 -29 -73 c-29 -72 -33 -77 -501 -548 -504 -508
-540 -551 -639 -749 -87 -172 -142 -387 -134 -521 2 -49 12 -84 39 -140 55
-115 113 -191 435 -575 166 -199 251 -313 377 -509 176 -274 455 -676 850
-1224 l189 -264 -272 -1026 c-149 -565 -279 -1039 -288 -1054 -10 -14 -73 -91
-142 -171 -69 -79 -170 -202 -225 -273 -205 -264 -321 -362 -522 -443 -45 -18
-88 -40 -96 -49 -61 -67 -31 -201 52 -234 101 -41 374 -56 695 -39 368 19 450
35 690 131 141 57 153 60 235 60 102 0 258 37 335 78 66 36 82 77 103 279 15
146 15 159 -1 229 -10 41 -21 99 -25 129 l-8 55 68 0 68 0 21 58 c12 31 46
151 74 267 l53 209 41 -106 c23 -59 42 -114 42 -123 0 -28 27 -68 79 -120 49
-48 51 -51 51 -105 0 -31 7 -80 16 -109 8 -29 14 -54 12 -54 -126 -60 -160
-91 -178 -158 -23 -86 26 -226 94 -268 45 -28 134 -45 191 -37 91 14 145 89
166 231 l12 78 87 86 c70 69 92 99 116 154 l28 67 77 0 76 0 49 -49 c70 -70
165 -96 257 -70 21 6 47 19 58 30 20 20 20 20 297 -16 594 -77 1119 -148 1385
-186 274 -39 278 -40 322 -73 24 -19 59 -37 77 -41 18 -4 36 -13 40 -19 4 -6
8 -47 8 -91 l0 -80 -45 -18 c-67 -28 -121 -71 -150 -121 -55 -95 -22 -243 69
-305 85 -59 227 -79 296 -42 67 35 120 149 120 257 0 49 13 65 80 99 65 33
114 93 146 182 l27 74 31 -30 c55 -53 119 -75 221 -76 81 0 95 3 138 28 53 31
100 95 119 162 7 22 34 69 60 104 60 79 141 242 168 341 48 177 60 596 66
2405 5 1518 8 1657 50 2100 13 143 36 384 51 535 31 327 38 741 14 798 -24 58
-107 87 -346 121 -161 23 -451 47 -707 59 -98 5 -181 11 -184 14 -3 3 0 379 6
835 12 819 12 829 36 928 13 55 33 161 44 235 43 285 87 471 190 800 111 358
129 515 77 702 -54 199 -164 444 -395 885 -123 234 -241 504 -291 667 -12 39
-26 124 -32 193 -29 357 -180 637 -407 756 -171 89 -518 176 -806 203 l-80 7
-165 141 c-92 77 -173 147 -182 153 -14 11 -13 6 2 -40z m1831 -5815 c-11
-337 -22 -615 -25 -619 -4 -3 -217 -1 -474 6 -258 6 -504 11 -548 11 l-80 1
40 31 c113 90 174 176 175 248 0 19 9 53 19 75 18 41 72 95 94 95 7 0 41 -68
77 -150 75 -173 58 -164 194 -104 164 72 300 167 357 250 48 71 66 178 51 313
-7 58 -23 145 -35 193 l-24 88 56 48 c31 27 74 74 96 104 25 35 41 49 43 39 1
-9 -6 -292 -16 -629z m-3536 -1109 c-134 -215 -216 -402 -216 -492 0 -60 -18
-106 -65 -166 -53 -69 -56 -78 -135 -360 -34 -121 -65 -226 -69 -233 -12 -22
-299 364 -358 482 -31 64 -58 93 -105 117 -47 24 -52 33 -34 61 26 40 109 96
273 184 221 119 417 250 698 463 44 33 81 61 82 61 1 0 -31 -53 -71 -117z"/>
</g>
</svg>
