<svg width="22" height="22" viewBox="0 0 22 22" fill="none" xmlns="http://www.w3.org/2000/svg">
<path d="M14.2173 2.59424H7.78234C5.49984 2.59424 4.99567 3.73091 4.70234 5.12424L3.6665 10.0834H18.3332L17.2973 5.12424C17.004 3.73091 16.4998 2.59424 14.2173 2.59424V2.59424Z" stroke="#2F80ED" stroke-width="1.5" stroke-linecap="round" stroke-linejoin="round"/>
<path d="M20.1575 18.1685C20.2583 19.241 19.3967 20.1668 18.2967 20.1668H16.5733C15.5833 20.1668 15.4458 19.7452 15.2717 19.2227L15.0883 18.6727C14.8317 17.921 14.6667 17.4168 13.3467 17.4168H8.65334C7.33334 17.4168 7.14084 17.9852 6.91167 18.6727L6.72834 19.2227C6.55417 19.7452 6.41667 20.1668 5.42667 20.1668H3.70334C2.60334 20.1668 1.74167 19.241 1.8425 18.1685L2.35584 12.586C2.48417 11.211 2.75 10.0835 5.15167 10.0835H16.8483C19.25 10.0835 19.5158 11.211 19.6442 12.586L20.1575 18.1685Z" stroke="#2F80ED" stroke-width="1.5" stroke-linecap="round" stroke-linejoin="round"/>
<path d="M3.66667 7.3335H2.75" stroke="#2F80ED" stroke-width="1.5" stroke-linecap="round" stroke-linejoin="round"/>
<path d="M19.2502 7.3335H18.3335" stroke="#2F80ED" stroke-width="1.5" stroke-linecap="round" stroke-linejoin="round"/>
<path d="M11 2.75V4.58333" stroke="#2F80ED" stroke-width="1.5" stroke-linecap="round" stroke-linejoin="round"/>
<path d="M9.625 4.5835H12.375" stroke="#2F80ED" stroke-width="1.5" stroke-linecap="round" stroke-linejoin="round"/>
<path d="M5.5 13.75H8.25" stroke="#2F80ED" stroke-width="1.5" stroke-linecap="round" stroke-linejoin="round"/>
<path d="M13.75 13.75H16.5" stroke="#2F80ED" stroke-width="1.5" stroke-linecap="round" stroke-linejoin="round"/>
</svg>
