<svg width="20" height="21" viewBox="0 0 20 21" fill="none" xmlns="http://www.w3.org/2000/svg">
<g id="location 1">
<g id="Group">
<path id="Vector" d="M9.9999 11.6916C10.3413 11.6916 10.6794 11.6243 10.9949 11.4937C11.3103 11.363 11.5969 11.1715 11.8384 10.9301C12.0798 10.6886 12.2713 10.402 12.402 10.0866C12.5327 9.77111 12.5999 9.43301 12.5999 9.09158C12.5999 8.75014 12.5327 8.41205 12.402 8.0966C12.2713 7.78115 12.0798 7.49453 11.8384 7.2531C11.5969 7.01167 11.3103 6.82015 10.9949 6.68949C10.6794 6.55883 10.3413 6.49158 9.9999 6.49158C9.31034 6.49158 8.64902 6.7655 8.16142 7.2531C7.67383 7.74069 7.3999 8.40201 7.3999 9.09158C7.3999 9.78114 7.67383 10.4425 8.16142 10.9301C8.64902 11.4177 9.31034 11.6916 9.9999 11.6916V11.6916Z" stroke="#828282" stroke-width="1.5"/>
<path id="Vector_2" d="M3.01675 7.57496C4.65842 0.358294 15.3501 0.366628 16.9834 7.58329C17.9417 11.8166 15.3084 15.4 13.0001 17.6166C12.1935 18.3946 11.1165 18.8293 9.99592 18.8293C8.87529 18.8293 7.79835 18.3946 6.99175 17.6166C4.69175 15.4 2.05842 11.8083 3.01675 7.57496V7.57496Z" stroke="#828282" stroke-width="1.5"/>
</g>
</g>
</svg>
